Patient4_TMGait_0pt3_03_left_09_EMG.mot
version=1
nRows=23
nColumns=33
inDegrees=no
endheader
time	1LAddLong	2LGlutMax	3LGlutMed	4LIliopsoas	5LSemiMemb	6LBicFemLong	7LRecFem	8LVastMed	9LVastLat	10LGasMed	11LTibAnt	12lTibPost	13LPeroneusLong	14LSol	15LExtDigLong	16LFlexDigLong	17RAddLong	18RGlutMax	19RGlutMed	20RIliopsoas	21RSemiMemb	22RBicFemLong	23RRecFem	24RVastMed	25RVastLat	26RGasMed	27RTibAnt	28RTibPost	29RPeroneusLong	30RSol	31RExtDigLong	32RFlexDigLong
16.05	0.005188	0.19226	-0.00473	0.024261	0.010071	-0.023956	0.032196	0.011444	0.015259	0.004425	-0.14069	0.018311	0.019226	0.030823	-0.020447	-0.006714	0.009766	0.050049	-0.24872	-0.047607	-0.016327	-0.071106	0.022888	-0.73746	-0.10239	0.002899	-0.11597	-0.2655	0.15457	-0.45334	0.000305	-0.008545
16.051	0.004578	0.22858	-0.020447	0.044403	0.018768	-0.037079	0.049896	0.007629	0.01236	0.007019	-0.21652	0.002289	0.018463	0.019531	0.029755	0.005035	0.013885	0.084991	0.47562	-0.19653	-0.022736	-0.067291	0.00412	-0.67154	-0.020447	-0.000763	0.044708	0.080261	-0.94101	-0.30243	0.001526	-0.002594
16.052	0.007019	0.24826	-0.033875	0.036011	0.00946	-0.041199	0.04715	0.016479	0.023804	0.002747	-0.24887	-0.005035	0.021515	-0.027161	0.025787	-0.00946	0.01709	0.003967	0.39703	-0.21164	0.012817	-0.093079	0.051727	-0.66559	0.041656	-0.015869	0.12344	0.14313	-1.7422	-0.37888	0.001526	-0.015717
16.053	0.006104	0.27618	-0.052795	0.031433	0.011139	-0.04837	0.030823	0.018158	0.021515	0.014038	-0.10483	-0.017548	-0.011292	-0.078888	0.14877	-0.011749	0.022888	0.020599	0.1683	-0.088806	0.000916	-0.09079	-0.006256	-0.41733	0.10834	-0.001526	0.00885	0.041809	0.30106	-0.53818	0.012665	-0.007935
16.054	0.010529	0.30609	-0.055847	0.03418	0.007172	-0.043793	0.03067	0.011292	0.03006	-0.000305	-0.05661	-0.020599	-0.03418	-0.056763	0.22659	0.000916	0.011444	0.048981	0.061493	0.20828	-0.063324	-0.05127	-0.25787	-0.18219	0.16083	-0.016479	-0.026398	-0.002899	0.31525	-0.32394	0.001526	-0.010071
16.055	0.00824	0.30197	-0.014191	0.002594	0.007172	-0.057068	0.029449	0.01358	0.034485	-0.024567	-0.031433	-0.025635	0.047302	-0.007324	0.21027	-0.014496	0.016785	0.044708	0.15182	0.44037	-0.063934	0.019073	-0.31021	-0.11078	0.20447	-0.021667	0.064697	0.00946	0.017242	0.25833	0.001678	-0.007477
16.056	0.010376	0.32089	-0.001678	-0.01358	0.01709	-0.044861	0.005951	0.009155	0.027008	-0.061646	0.038147	-0.038452	0.098419	0.031128	0.080261	-0.001373	0.031738	0.030823	0.33264	0.33463	-0.021973	0.066223	-0.13962	-0.15595	0.24231	-0.014191	0.023193	-0.013733	0.25711	0.20828	-0.000763	-0.011597
16.057	0.010223	0.32608	-0.001984	-0.013885	0.008392	-0.039063	-0.001221	0.007172	0.021667	-0.021667	0.082245	-0.040894	0.027161	0.012665	-0.10986	-0.007172	0.000916	0.035095	0.3772	0.15488	0.098877	0.062103	-0.043793	-0.20615	0.19653	-0.021362	0.005798	0.016479	-0.009766	-0.019684	0.001984	-0.012665
16.058	0.008545	0.36667	0.002441	-0.00412	0.019836	-0.044098	0.025787	0.008545	0.031433	0.000916	0.075836	-0.03891	-0.007019	-0.007629	-0.27512	-0.009003	0.001831	0.013885	0.64896	-0.047455	0.027161	0.073853	0.037994	-0.089417	0.19516	-0.005188	0.010376	-0.005798	-0.092163	0.25589	-0.007324	-0.001068
16.059	0.018616	0.36529	-0.020752	-0.016479	0.01297	-0.06012	0.022736	0.003052	0.019684	0.007019	0.07019	-0.043488	-0.00946	-0.027924	-0.17838	-0.013123	0.021973	-0.075226	0.66467	-0.075531	-0.028229	0.075531	0.12741	-0.033417	0.11047	0.003204	0.011139	0.01236	-0.40909	0.32959	0.003052	0.000763
16.06	0.00824	0.32638	-0.014801	0.009003	0.011902	-0.049286	0.020294	0.006104	0.01709	0.002289	0.024261	-0.04364	0.009766	-0.018158	-0.046692	0.00473	0.049591	-0.14084	0.031128	-0.01709	-0.10544	0.055542	0.14847	-0.025024	0.065308	-0.001221	-0.043488	-0.007019	0.43366	0.3009	0.000458	0
16.061	-0.002136	0.31509	-0.020294	0.013275	0.011444	-0.038605	0.000458	0.013885	0.010986	-0.014648	0.029144	-0.042725	-0.011444	-0.009003	0.075073	0.005493	0.060425	-0.15839	-0.30975	0.052032	-0.1265	0.026398	0.14954	-0.078735	0.045624	-0.028381	-0.013733	-0.08194	0.72128	0.3305	0.002289	-0.007782
16.062	-0.005188	0.35706	-0.014191	-0.002136	0.00412	-0.023804	0.01236	0.00824	-0.000458	-0.00351	0.025635	-0.040131	0.012207	0.039063	0.068665	-0.001984	0.031586	-0.14267	-0.0177	0.09903	-0.019989	-0.041504	0.18875	0.040894	0.058136	-0.035248	-0.006866	-0.37872	0.68253	-0.058289	-0.003662	-0.003967
16.063	0.002136	0.39108	-0.023804	0.017853	0.009155	-0.011139	-0.001984	0.012207	-0.005493	0.025024	0.040283	-0.043335	-0.00351	0.045319	0.12924	0.000305	0.016632	-0.14053	0.24857	0.084381	0.064392	-0.036316	0.37918	0.14511	0.23987	-0.032349	-0.014648	-0.080719	0.27725	-0.504	-0.004272	-0.007324
16.064	0.001678	0.41641	-0.030212	0.01236	0.020599	-0.016327	0.00946	0.007019	-0.018921	-0.003662	0.046997	-0.046082	-0.024567	0.056305	0.14374	-0.010529	0.004272	-0.2298	-0.091858	0.036011	0.038605	-0.032043	0.42664	0.14496	0.40741	-0.017395	-0.002136	0.38345	0.32013	-0.19272	0.000305	-0.013275
16.065	0.007324	0.44189	-0.028839	0.012207	-0.002136	-0.02182	0.020905	0.007172	-0.015106	-0.005798	0.068512	-0.044708	-0.015106	0.045929	0.10452	-0.020294	-0.003967	-0.18662	0.035095	-0.00824	0.032196	0.02121	0.32669	-0.012207	0.35187	0.042419	-0.019684	0.16251	1.2558	-0.17273	0.000153	-0.016479
16.066	0.010376	0.439	0.011292	0.018768	0.002747	-0.01297	0.020752	0.003357	-0.015411	-0.016937	0.070801	-0.036926	0.061035	-0.007935	-0.30319	-0.016327	-0.025024	-0.14206	0.18875	-0.018158	0.034485	0.065308	0.15732	0.010529	0.31158	0.023804	-0.067444	0.038147	1.2267	-0.12146	-0.003815	-0.002289
16.067	0.008392	0.50201	0.010834	0.018616	0.015259	-0.033264	0.019379	0.002136	-0.007172	-0.018921	-0.035858	-0.044098	0.075989	-0.020905	-0.009766	-0.014648	-0.033264	-0.1358	0.50552	-0.1442	0.035095	0.085297	-0.049744	0.27374	0.33081	0.007935	-0.028534	-0.007477	0.69519	0.10498	0.002899	0.000153
16.068	0.010376	0.50934	0.02594	0.020752	0.01236	-0.028687	0.020294	-0.000458	0.006409	0.000458	-0.027771	-0.043182	0.011749	-0.010681	0.26764	-0.013123	-0.03006	-0.09903	0.44662	-0.12863	0.032959	0.098724	-0.25192	0.22797	0.26276	-0.001831	0.091858	-0.039825	-0.57022	0.19821	0.002136	-0.01297
16.069	0.004883	0.52048	-0.01709	0.012665	0.010986	-0.022583	0.020294	0.002899	0.006256	0.002289	-0.016479	-0.025482	-0.021667	0.012817	0.23956	-0.012054	-0.043793	-0.15671	0.032959	-0.045776	0.039825	0.075226	-0.76569	0.19409	0.17029	0.000763	0.2562	-0.040588	-0.50247	0.18005	0.003357	-0.006714
16.07	0.005188	0.51758	-0.046692	0.015564	0.012207	-0.03067	0.007782	-0.003052	0.016785	-0.01236	0.036316	-0.046539	0.014191	0.023346	-0.16693	-0.011902	-0.041962	-0.2594	-0.18051	-0.00946	0.048676	0.078888	-1.0843	0.098419	0.071259	0.000153	0.17593	-0.030365	-0.87555	0.019226	-0.000916	-0.012054
16.071	-0.007477	0.52368	-0.038605	0.016632	0.006104	-0.040436	0.016022	0.001678	0.009613	-0.032501	0.072479	-0.043945	0.026245	0.029602	0.1471	-0.003052	-0.00412	-0.20966	0.67764	-0.059204	0.011749	0.06485	-0.39322	-0.030975	-0.11139	0.012054	-0.025024	-0.027771	-0.77789	-0.15091	-0.002747	-0.002747
16.072	-0.019379	0.57114	-0.021973	0.022278	0.005493	-0.049896	0.006104	-0.001526	-0.000458	-0.045013	0.15167	-0.040131	0.05249	0.078125	-0.37048	-0.004425	0.031738	-0.20981	0.62271	-0.061951	-0.03067	0.007324	-0.049744	-0.23926	-0.70602	0.013275	-0.14374	-0.028839	-0.46936	-0.078888	-0.000305	0.003662
